HIERARCHY
ROOT Pelvis
{
	OFFSET 0.000000 0.000000 0.000000
	CHANNELS 6 Xposition Yposition Zposition Xrotation Yrotation Zrotation
	JOINT LeftUpLeg_virtual
	{
		OFFSET 0.000000 0.000000 0.000000
		CHANNELS 3 Xrotation Yrotation Zrotation
		JOINT LeftUpLeg
		{
			OFFSET 18.735201 -5.666702 -4.541200
			CHANNELS 3 Xrotation Yrotation Zrotation
			JOINT LeftLeg
			{
				OFFSET -0.021200 -31.938179 0.493100
				CHANNELS 3 Xrotation Yrotation Zrotation
				JOINT LeftFoot
				{
					OFFSET 0.021200 -31.938179 -4.336299
					CHANNELS 3 Xrotation Yrotation Zrotation
					JOINT LeftToeBase
					{
						OFFSET 0.943001 -26.722000 15.023500
						CHANNELS 3 Xrotation Yrotation Zrotation
						End Site
						{
							OFFSET 0 0 0
						}
					}
				}
			}
		}
	}
	JOINT RightUpLeg_virtual
	{
		OFFSET 0.000000 0.000000 0.000000
		CHANNELS 3 Xrotation Yrotation Zrotation
		JOINT RightUpLeg
		{
			OFFSET -18.735201 -5.666702 -4.541200
			CHANNELS 3 Xrotation Yrotation Zrotation
			JOINT RightLeg
			{
				OFFSET 0.018946 -31.938133 0.493100
				CHANNELS 3 Xrotation Yrotation Zrotation
				JOINT RightFoot
				{
					OFFSET -0.018946 -31.938126 -4.336299
					CHANNELS 3 Xrotation Yrotation Zrotation
					JOINT RightToeBase
					{
						OFFSET -0.943001 -26.722004 15.023500
						CHANNELS 3 Xrotation Yrotation Zrotation
						End Site
						{
							OFFSET 0 0 0
						}
					}
				}
			}
		}
	}
	JOINT Hips_virtual
	{
		OFFSET 0.000000 0.000000 0.000000
		CHANNELS 3 Xrotation Yrotation Zrotation
		JOINT Hips
		{
			OFFSET -0.000000 -0.000000 -0.000000
			CHANNELS 3 Xrotation Yrotation Zrotation
			JOINT Spine
			{
				OFFSET 0.000000 10.199997 -0.299500
				CHANNELS 3 Xrotation Yrotation Zrotation
				JOINT Spine1
				{
					OFFSET 0.000000 11.900002 -1.516600
					CHANNELS 3 Xrotation Yrotation Zrotation
					JOINT Spine2
					{
						OFFSET 0.000000 13.600006 -2.842500
						CHANNELS 3 Xrotation Yrotation Zrotation
						JOINT Neck_virtual
						{
							OFFSET 0.000000 0.000000 0.000000
							CHANNELS 3 Xrotation Yrotation Zrotation
							JOINT Neck
							{
								OFFSET 0.000000 9.624100 -2.890100
								CHANNELS 3 Xrotation Yrotation Zrotation
								JOINT Head
								{
									OFFSET 0.000000 14.068802 -1.351900
									CHANNELS 3 Xrotation Yrotation Zrotation
									End Site
									{
										OFFSET 0 0 0
									}
								}
							}
						}
						JOINT LeftShoulder_virtual
						{
							OFFSET 0.000000 0.000000 0.000000
							CHANNELS 3 Xrotation Yrotation Zrotation
							JOINT LeftShoulder
							{
								OFFSET 15.263000 10.923401 -0.547700
								CHANNELS 3 Xrotation Yrotation Zrotation
								JOINT LeftArm
								{
									OFFSET 25.438599 -2.830597 -13.032500
									CHANNELS 3 Xrotation Yrotation Zrotation
									JOINT LeftForeArm
									{
										OFFSET 29.960503 0.000000 0.000000
										CHANNELS 3 Xrotation Yrotation Zrotation
										JOINT LeftHand
										{
											OFFSET 27.849251 0.000000 0.000000
											CHANNELS 3 Xrotation Yrotation Zrotation
											End Site
											{
												OFFSET 0 0 0
											}
										}
									}
								}
							}
						}
						JOINT RightShoulder_virtual
						{
							OFFSET 0.000000 0.000000 0.000000
							CHANNELS 3 Xrotation Yrotation Zrotation
							JOINT RightShoulder
							{
								OFFSET -15.263000 10.923401 -0.547700
								CHANNELS 3 Xrotation Yrotation Zrotation
								JOINT RightArm
								{
									OFFSET -25.438599 -2.830597 -13.032500
									CHANNELS 3 Xrotation Yrotation Zrotation
									JOINT RightForeArm
									{
										OFFSET -29.960503 0.000000 0.000000
										CHANNELS 3 Xrotation Yrotation Zrotation
										JOINT RightHand
										{
											OFFSET -27.849251 0.000000 0.000000
											CHANNELS 3 Xrotation Yrotation Zrotation
											End Site
											{
												OFFSET 0 0 0
											}
										}
									}
								}
							}
						}
					}
				}
			}
		}
	}
}
MOTION
Frames: 6
Frame Time: 0.03333333
70.977219 91.030998 45.956795 0.000000 0.000000 0.000000 14.022436 10.535317 -6.620675 -27.440070 16.845142 13.232865 44.718136 -5.578075 1.492656 -5.457420 -6.675704 -6.762137 0.000000 0.000000 0.000000 11.113734 42.043513 -0.451754 -14.499296 6.043640 -8.887042 35.312314 -7.650122 -0.735541 -14.034545 -10.933492 4.785988 0.000000 0.000000 0.000000 21.475593 47.166667 -11.293042 -29.752717 23.267871 -12.465646 7.354784 15.739969 -3.624317 5.019372 7.870197 -2.690767 0.000000 0.000000 0.000000 13.051393 4.679305 -3.163242 2.760053 -0.883798 -0.243262 0.000000 0.000000 0.000000 5.586524 9.774479 -3.750463 -1.961423 2.119090 -9.211845 4.056405 -39.391405 -48.267192 43.245575 -80.694771 34.788612 0.000000 0.000000 0.000000 5.663429 12.502863 -0.232001 -7.193914 30.849413 13.893644 -0.128684 32.845342 35.536030 6.109656 46.692003 1.924419 0.000000 0.000000 0.000000 
70.714447 91.203758 45.982079 0.000000 0.000000 0.000000 14.082873 10.310107 -6.497620 -27.231486 16.769602 13.267753 44.453791 -5.093982 1.344175 -5.630039 -6.097020 -6.637480 0.000000 0.000000 0.000000 11.313704 41.033755 -0.167378 -14.134953 5.631139 -8.702850 34.409397 -8.031478 -0.938984 -14.937999 -11.228957 4.245169 0.000000 0.000000 0.000000 20.903871 46.274197 -10.777190 -28.915295 23.242101 -12.721757 7.402198 15.491231 -3.425233 4.971294 7.719713 -2.543535 0.000000 0.000000 0.000000 12.833552 4.555749 -3.073968 2.674945 -0.871497 -0.284889 0.000000 0.000000 0.000000 5.489450 9.547734 -3.542422 -1.857102 2.132029 -9.143664 3.865392 -39.226268 -48.458819 42.620445 -80.682716 34.253774 0.000000 0.000000 0.000000 5.659242 12.278920 -0.082273 -7.079979 30.415437 14.471412 -0.197185 32.260906 35.967015 6.217852 47.062630 1.511482 0.000000 0.000000 0.000000 
70.429810 91.401131 45.833740 0.000000 0.000000 0.000000 14.097750 10.082045 -6.380750 -27.072099 16.685957 13.291861 44.125416 -4.610633 1.177729 -5.861402 -5.506597 -6.542237 0.000000 0.000000 0.000000 11.617202 39.819856 0.010279 -13.659141 5.169482 -8.624672 33.654152 -8.408878 -1.038420 -15.748179 -11.556807 3.890951 0.000000 0.000000 0.000000 20.330142 45.230763 -10.248652 -27.745752 23.177861 -13.094531 7.427157 15.237681 -3.223885 4.905678 7.566376 -2.393907 0.000000 0.000000 0.000000 12.628482 4.403088 -2.993901 2.599652 -0.870281 -0.335741 0.000000 0.000000 0.000000 5.374540 9.299235 -3.322565 -1.746929 2.110448 -9.052463 3.667435 -39.103321 -48.582784 42.215296 -80.693521 33.953700 0.000000 0.000000 0.000000 5.631388 12.038844 0.072151 -6.944924 29.960516 15.039433 -0.040030 31.672427 36.362800 6.424485 47.419637 1.055537 0.000000 0.000000 0.000000 
69.995857 91.587807 45.620483 0.000000 0.000000 0.000000 14.109324 9.835323 -6.241847 -26.937605 16.592421 13.347778 43.826233 -4.166292 1.027674 -6.094889 -4.962707 -6.454071 0.000000 0.000000 0.000000 11.946781 38.312047 0.107532 -13.217534 4.627592 -8.686089 32.936982 -8.895510 -1.125891 -16.579977 -11.979243 3.500816 0.000000 0.000000 0.000000 19.782381 44.043358 -9.733788 -26.251795 23.030921 -13.634964 7.279572 14.955632 -3.023119 4.739134 7.397742 -2.249537 0.000000 0.000000 0.000000 12.387777 4.216670 -2.909262 2.510472 -0.884367 -0.389375 0.000000 0.000000 0.000000 5.238243 9.028679 -3.101076 -1.636327 2.059413 -8.968702 3.407434 -38.985371 -48.685076 41.834454 -80.720829 33.698022 0.000000 0.000000 0.000000 5.580618 11.770389 0.225366 -6.785112 29.451185 15.575671 0.203704 31.075254 36.818541 6.670902 47.787022 0.604246 0.000000 0.000000 0.000000 
69.568665 91.761360 45.339035 0.000000 0.000000 0.000000 14.066247 9.554321 -6.069026 -26.867207 16.470960 13.434011 43.519913 -3.753634 0.877146 -6.344647 -4.450401 -6.391780 0.000000 0.000000 0.000000 12.197465 36.500592 0.251365 -12.941626 3.989152 -8.800446 32.034414 -9.470345 -1.227862 -17.627926 -12.463979 3.062719 0.000000 0.000000 0.000000 19.255319 42.777488 -9.240493 -24.525503 22.928001 -14.317596 7.124496 14.635125 -2.852699 4.565400 7.209472 -2.120325 0.000000 0.000000 0.000000 12.079997 4.017709 -2.782824 2.392357 -0.901347 -0.424438 0.000000 0.000000 0.000000 5.075984 8.727026 -2.897313 -1.532514 1.949388 -8.965485 3.063076 -38.927280 -48.902597 41.464296 -80.803645 33.431252 0.000000 0.000000 0.000000 5.504146 11.472616 0.359147 -6.591670 28.899234 15.994353 0.550461 30.561757 37.265792 6.990437 48.267267 0.111895 0.000000 0.000000 0.000000 
69.146790 91.844589 45.091881 0.000000 0.000000 0.000000 13.955237 9.423265 -5.881489 -26.882636 16.361679 13.560360 43.176713 -3.350908 0.724488 -6.611219 -3.948572 -6.341001 0.000000 0.000000 0.000000 12.156115 33.946327 0.515646 -13.023178 3.166763 -8.976354 30.336668 -10.441910 -1.597649 -19.215863 -13.223316 1.975851 0.000000 0.000000 0.000000 18.658451 41.578852 -8.737082 -23.000824 23.117740 -14.779069 6.905828 14.316103 -2.701465 4.354209 7.021899 -2.003103 0.000000 0.000000 0.000000 11.761690 3.888241 -2.627835 2.272232 -0.871013 -0.441877 0.000000 0.000000 0.000000 4.891130 8.438405 -2.720476 -1.421338 1.935570 -9.065174 2.806906 -38.736455 -49.170764 40.561041 -80.777977 32.585545 0.000000 0.000000 0.000000 5.384262 11.169115 0.464959 -6.386364 28.382120 16.265416 0.755092 30.420611 37.731160 7.360109 49.245503 -0.457524 0.000000 0.000000 0.000000 
